<svg width="46" height="37" viewBox="0 0 46 37" fill="none" xmlns="http://www.w3.org/2000/svg">
<path d="M42.0962 6.53869L14.7171 5.65717H5.17592L2.53135 7.42021L3.67215 12.7612V15.0428L4.39811 18.7244V21.1097L1.44241 21.9913V26.2433L2.53135 29.6138L20.1099 35.1622L40.4368 29.6138L39.659 27.1767L40.4368 24.0136V21.9913L42.0962 21.1097V16.6503L41.3183 12.7612V9.33882L42.0962 6.53869Z" fill="white"/>
<path d="M28.6141 1.21844C28.3548 1.23918 28.0541 1.3014 27.94 1.35326C27.8259 1.40511 26.9859 1.51919 26.0732 1.61253C25.1606 1.70587 24.3206 1.81995 24.2065 1.8718C24.0924 1.92365 23.2316 2.03773 22.2879 2.14144C21.3441 2.23478 20.5352 2.34886 20.473 2.39034C20.4211 2.43183 19.55 2.54591 18.5544 2.64961C17.5588 2.75332 16.7187 2.8674 16.6876 2.90889C16.6565 2.94 15.8165 3.07482 14.8209 3.19927C11.1599 3.64522 10.2058 3.78004 10.154 3.84226C10.1229 3.88375 9.2517 3.99782 8.21462 4.10153C7.16716 4.20524 6.31675 4.32969 6.31675 4.38155C6.31675 4.42303 6.14045 4.46451 5.93303 4.46451C5.36264 4.47488 4.2011 4.73416 4.15962 4.86898C4.13887 4.9312 4.06628 4.98306 3.99368 4.98306C3.82775 4.98306 3.22624 5.57419 3.15364 5.82309C3.11216 5.9268 3.04993 6.02014 2.99808 6.02014C2.94623 6.02014 2.84252 6.21719 2.76992 6.45572C2.7077 6.70462 2.59362 6.93278 2.53139 6.97426C2.37583 7.08834 2.3862 10.8218 2.55213 11.0085C2.61436 11.0915 2.72844 11.3922 2.80103 11.6723C2.87363 11.9626 2.99808 12.253 3.07068 12.3256C3.14327 12.3982 3.2055 12.5227 3.2055 12.5953C3.2055 12.6679 3.29884 12.813 3.41291 12.9168C3.80701 13.2797 3.68256 13.4353 2.84252 13.6323C2.40694 13.7361 1.99211 13.8812 1.90914 13.9746C1.68098 14.2027 1.73284 14.9391 1.97137 14.9391C2.02322 14.9391 2.15804 15.0324 2.27212 15.1465C2.3862 15.2606 2.57288 15.3539 2.68696 15.3539C2.80103 15.3539 2.89437 15.3954 2.89437 15.4576C2.89437 15.5095 2.9566 15.5613 3.02919 15.5613C3.25735 15.5613 3.7033 16.0591 3.83812 16.4636C3.90034 16.6814 4.00405 16.8888 4.06628 16.9199C4.11813 16.9614 4.19073 17.6044 4.22184 18.3511C4.26332 19.5645 4.25295 19.7097 4.09739 19.7097C4.00405 19.7097 3.93146 19.7511 3.93146 19.803C3.93146 19.8549 3.57885 19.9793 3.15364 20.083C2.72844 20.1867 2.37583 20.3008 2.37583 20.3423C2.37583 20.3941 2.17878 20.4771 1.94025 20.5497C1.3906 20.6949 1.11059 20.9749 1.15207 21.3379C1.18318 21.5764 1.25578 21.6386 1.70172 21.7424C1.99211 21.8046 2.15804 21.8668 2.09582 21.8772C2.02322 21.8772 1.8884 22.0431 1.79506 22.2194C1.70172 22.4061 1.58764 22.5824 1.53579 22.6135C1.49431 22.6446 1.38023 22.9454 1.28689 23.2876C0.996506 24.418 1.1417 27.8923 1.49431 28.2552C1.5669 28.3278 1.66024 28.5249 1.69135 28.7012C1.73284 28.8775 1.84692 29.1057 1.95062 29.2197C2.05433 29.3234 2.19953 29.5205 2.26175 29.6449C2.32398 29.7694 2.44843 29.8731 2.53139 29.8731C2.61436 29.8731 2.68696 29.9146 2.68696 29.9664C2.68696 30.0805 3.26772 30.3916 3.48551 30.3916C3.55811 30.3916 3.62033 30.4331 3.62033 30.485C3.62033 30.5368 3.8796 30.6405 4.19073 30.7131C4.50185 30.7857 4.76113 30.8687 4.76113 30.9102C4.76113 30.9517 5.05151 31.045 5.40412 31.1176C5.7671 31.1798 6.24416 31.325 6.47232 31.4287C6.70048 31.5324 7.05308 31.6465 7.25013 31.688C7.44718 31.7295 7.79979 31.8436 8.02794 31.9473C8.2561 32.051 8.71242 32.1962 9.04429 32.2584C9.36578 32.331 9.63543 32.4243 9.63543 32.4658C9.63543 32.5073 10.0088 32.6214 10.4651 32.7251C10.9214 32.8288 11.2948 32.9532 11.2948 32.9947C11.2948 33.0362 11.4711 33.0984 11.6889 33.1399C11.8963 33.1814 12.2593 33.2955 12.4874 33.3992C12.7156 33.5029 13.1719 33.6481 13.5038 33.7103C13.8253 33.7829 14.0949 33.8763 14.0949 33.9177C14.0949 33.9488 14.4371 34.0629 14.852 34.177C15.2564 34.2807 15.6505 34.3948 15.7024 34.4363C15.7646 34.4778 16.138 34.5918 16.532 34.6955C16.9365 34.7993 17.2787 34.9133 17.3099 34.9548C17.341 34.9859 17.6936 35.1104 18.0877 35.2141C18.4921 35.3178 18.8447 35.4526 18.8862 35.5148C18.9692 35.6393 20.0789 35.6289 20.2448 35.4941C20.3174 35.4422 20.8256 35.3074 21.3856 35.2037C21.9353 35.1 22.3916 34.9859 22.3916 34.9548C22.3916 34.9133 22.8686 34.7993 23.4598 34.6955C24.0405 34.5918 24.5383 34.4674 24.5695 34.4363C24.6006 34.4052 25.0984 34.2807 25.6895 34.177C26.2703 34.0733 26.7473 33.9592 26.7473 33.9177C26.7473 33.8866 27.2037 33.7725 27.7637 33.6688C28.3133 33.5651 28.8215 33.4407 28.8734 33.3888C28.9356 33.3473 29.3089 33.254 29.703 33.1814C30.1075 33.1192 30.4497 33.0258 30.4808 32.9844C30.512 32.9429 30.9579 32.8392 31.4661 32.7355C31.9846 32.6421 32.4928 32.5177 32.6069 32.4658C32.7209 32.4243 33.2602 32.2999 33.7995 32.1962C34.3388 32.1028 34.8055 31.9888 34.8366 31.9473C34.8677 31.9058 35.3344 31.7917 35.8737 31.688C36.413 31.5843 36.9108 31.4702 36.9626 31.4287C37.0248 31.3872 37.5123 31.2732 38.0516 31.1695C38.5908 31.0761 39.0886 30.962 39.1405 30.9102C39.2027 30.8687 39.5864 30.7754 40.0013 30.7028C40.4057 30.6302 40.748 30.5368 40.748 30.4954C40.748 30.4539 41.2354 30.3398 41.8369 30.2257C42.4384 30.122 42.9259 30.0079 42.9259 29.9664C42.9259 29.925 43.1125 29.8731 43.3511 29.8316C43.7244 29.7694 43.7659 29.7383 43.7348 29.4998C43.714 29.3338 43.5896 29.1679 43.3926 29.0642C43.2266 28.9708 43.0711 28.8568 43.0503 28.8153C43.0296 28.7842 42.7496 28.6701 42.4281 28.5664C42.1066 28.4627 41.8162 28.3486 41.7851 28.3175C41.754 28.276 41.4843 28.1827 41.1939 28.1101L40.6443 27.9856V26.8967C40.6443 25.8077 40.8828 24.3765 41.0695 24.3765C41.1213 24.3765 41.2147 24.2728 41.2769 24.138C41.3806 23.9202 41.6399 23.7543 42.1792 23.5987C42.3036 23.5676 42.4073 23.4847 42.4073 23.4328C42.4073 23.3809 42.4799 23.3395 42.5629 23.3395C42.8222 23.3395 43.0607 22.8624 42.9881 22.4787C42.9362 22.1779 42.8636 22.1261 42.4592 22.012L41.9925 21.8875L42.3866 21.5038C42.594 21.286 42.8429 20.9853 42.9155 20.8193C42.9985 20.6638 43.1022 20.5393 43.1333 20.5393C43.1748 20.5393 43.2681 20.249 43.3407 19.886C43.4133 19.5334 43.5274 19.2119 43.5896 19.1704C43.7452 19.0667 43.7452 15.2709 43.6 15.1672C43.5377 15.1257 43.4237 14.8976 43.3511 14.6591C43.2681 14.4205 43.1437 14.2027 43.0711 14.1716C42.9881 14.1405 42.9259 14.0472 42.9259 13.9746C42.9259 13.8709 43.1748 13.7879 43.7037 13.6946C44.1289 13.622 44.4815 13.5286 44.4815 13.4768C44.4815 13.4353 44.5852 13.3834 44.72 13.3627C44.8963 13.342 44.9482 13.259 44.9482 13.0205C44.9482 12.7819 44.8756 12.6782 44.6371 12.5641C44.4711 12.4812 44.3052 12.3878 44.2741 12.336C44.243 12.2945 43.9422 12.1804 43.6 12.0871C43.2577 11.9834 42.957 11.8693 42.9259 11.8278C42.8948 11.7967 42.6666 11.7137 42.4073 11.6619L41.9406 11.5685V10.1892C41.9406 9.39067 41.9821 8.77879 42.0443 8.7373C42.1066 8.69582 42.2103 8.47803 42.2932 8.24987C42.4592 7.78319 42.8948 7.26464 43.1333 7.25427C43.2162 7.25427 43.5274 7.11945 43.8074 6.96389C44.2119 6.73573 44.3363 6.61128 44.357 6.38312C44.4296 5.80235 44.3156 5.63642 43.8074 5.56382C43.5481 5.52234 43.3407 5.44974 43.3407 5.40826C43.3407 5.36678 43.0399 5.27344 42.677 5.20084C42.314 5.12825 41.8991 5.0038 41.754 4.9312C41.6088 4.85861 41.1317 4.71341 40.6754 4.60971C40.2294 4.506 39.8457 4.39192 39.8146 4.35043C39.7835 4.30895 39.3998 4.20524 38.9642 4.10153C38.5183 4.0082 38.1553 3.89412 38.1553 3.85263C38.1553 3.81115 37.8545 3.71781 37.4812 3.64522C37.1078 3.57262 36.8071 3.47928 36.8071 3.42743C36.8071 3.38594 36.413 3.27187 35.9255 3.16816C35.4381 3.06445 35.044 2.95037 35.044 2.91926C35.044 2.87777 34.6499 2.75332 34.1625 2.64961C33.6751 2.53553 33.281 2.41108 33.281 2.37997C33.281 2.34886 32.8972 2.23478 32.4306 2.13107C31.9535 2.02736 31.549 1.91328 31.5179 1.8718C31.4868 1.83032 31.1135 1.71624 30.6883 1.61253C30.2631 1.50882 29.869 1.39474 29.8067 1.35326C29.6512 1.22881 29.1326 1.17695 28.6141 1.21844ZM5.38338 6.51794C5.38338 6.5698 5.73599 6.68388 6.16119 6.78758C6.5864 6.89129 6.939 7.00537 6.939 7.04686C6.939 7.08834 7.31236 7.21279 7.76867 7.3165C8.22499 7.42021 8.59834 7.54466 8.59834 7.58614C8.59834 7.62762 8.84724 7.72096 9.148 7.78319C9.43838 7.85578 9.70802 7.94912 9.73913 7.9906C9.77025 8.02172 10.1229 8.1358 10.5169 8.24987C10.9214 8.35358 11.2948 8.46766 11.3466 8.50915C11.4088 8.55063 11.7926 8.66471 12.2074 8.76842C12.6119 8.86175 12.9541 8.97583 12.9541 9.01732C12.9541 9.0588 13.3274 9.18325 13.7838 9.28696C14.2401 9.39067 14.6134 9.51512 14.6134 9.5566C14.6134 9.59809 14.966 9.71216 15.3912 9.81587C15.8165 9.91958 16.1691 10.0337 16.1691 10.0648C16.1691 10.1063 16.4283 10.1996 16.7395 10.2722C17.0506 10.3448 17.3099 10.4381 17.3099 10.4796C17.3099 10.5107 17.6832 10.6248 18.1395 10.7285C18.5958 10.8322 19.0003 10.9567 19.021 10.9982C19.0522 11.05 19.4255 11.1641 19.8507 11.2678C20.2759 11.3715 20.6285 11.4856 20.6285 11.5374C20.6285 11.5789 20.6908 11.6204 20.7634 11.6204C20.8567 11.6204 20.8774 12.1182 20.8256 13.9227C20.7841 15.1983 20.753 16.3184 20.7426 16.4221C20.7322 16.5777 20.67 16.5984 20.3485 16.5362C20.1307 16.4947 19.9337 16.4325 19.9026 16.391C19.8715 16.3495 19.4359 16.2354 18.9173 16.1317C18.4092 16.028 17.9632 15.9036 17.9321 15.8621C17.901 15.831 17.4862 15.7065 16.9987 15.6132C16.5113 15.5095 16.0861 15.385 16.055 15.3332C16.0239 15.2917 15.6298 15.1776 15.1838 15.0946C14.7275 15.0013 14.3334 14.8976 14.3023 14.8457C14.2712 14.8043 13.846 14.6798 13.3482 14.5761C12.84 14.4724 12.4356 14.3583 12.4356 14.3168C12.4356 14.2753 12.1141 14.182 11.7096 14.1094C11.3155 14.0368 10.9836 13.9435 10.9836 13.9124C10.9836 13.8709 10.5792 13.7568 10.0814 13.6531C9.5732 13.539 9.148 13.4249 9.11688 13.3834C9.08577 13.3523 8.69168 13.2383 8.23536 13.1345C7.77904 13.0308 7.27087 12.8856 7.09457 12.813C6.92863 12.7405 6.4412 12.616 6.03674 12.5434C5.62191 12.4708 5.27967 12.3775 5.27967 12.3256C5.27967 12.2841 5.21744 12.2427 5.15522 12.2427C4.92706 12.2323 4.60556 11.9004 4.45 11.5167C4.36703 11.3196 4.2737 11.133 4.22184 11.1019C4.18036 11.0707 4.08702 10.5937 4.0248 10.0544C3.88997 8.97583 3.97294 7.55503 4.18036 7.33724C4.25295 7.27501 4.33592 7.12982 4.3774 7.02611C4.41889 6.92241 4.59519 6.77721 4.76113 6.71499C4.93743 6.65276 5.07225 6.55943 5.07225 6.51794C5.07225 6.47646 5.14485 6.43498 5.22781 6.43498C5.31078 6.43498 5.38338 6.47646 5.38338 6.51794ZM41.1628 7.92838C41.1628 8.00097 41.0902 8.27062 40.9969 8.51952C40.8828 8.84101 40.831 9.40104 40.8206 10.4796L40.7998 11.9834L40.022 12.1286C39.5968 12.2115 39.2235 12.3049 39.1924 12.3464C39.1612 12.3878 38.6946 12.5019 38.1553 12.6056C37.616 12.7093 37.1493 12.8234 37.1182 12.8649C37.0871 12.9064 36.6204 13.0205 36.0811 13.1242C35.5418 13.2279 35.0751 13.342 35.044 13.3834C35.0129 13.4249 34.5462 13.539 34.0069 13.6323C33.4676 13.7257 32.9802 13.8501 32.918 13.8916C32.8661 13.9435 32.4928 14.0368 32.0883 14.1094C31.6942 14.182 31.3416 14.2753 31.3105 14.3168C31.2794 14.3479 30.8023 14.4724 30.2527 14.5761C29.6927 14.6798 29.2363 14.8043 29.2363 14.8354C29.2363 14.8768 28.7696 14.9909 28.1993 15.0946C27.6289 15.1983 27.1622 15.3124 27.1622 15.3539C27.1622 15.3954 26.654 15.5095 26.0214 15.6132C25.3991 15.7169 24.8806 15.831 24.8806 15.8725C24.8806 15.9036 24.4243 16.028 23.8746 16.1317C23.3146 16.2354 22.8375 16.3495 22.8064 16.391C22.7753 16.4325 22.5575 16.5051 22.319 16.5466L21.873 16.6192L21.8834 15.1257C21.8938 14.3168 21.9249 13.1968 21.9664 12.6575L22.0286 11.6723L22.4227 11.6411C22.6301 11.6204 22.8064 11.5685 22.8064 11.5271C22.8064 11.4752 23.3664 11.3508 24.0509 11.2471C24.7354 11.1433 25.2954 11.0293 25.2954 10.9878C25.2954 10.9567 25.8762 10.8426 26.5918 10.7389C27.3074 10.6352 27.8881 10.5211 27.8881 10.4796C27.8881 10.4381 28.2926 10.3448 28.8008 10.2722C29.2986 10.1996 29.7549 10.0959 29.8067 10.0544C29.869 10.0129 30.4497 9.89884 31.1031 9.79513C31.7565 9.70179 32.3165 9.58771 32.3476 9.54623C32.3787 9.50475 32.9491 9.39067 33.6232 9.28696C34.2869 9.19362 34.8366 9.07954 34.8366 9.03806C34.8366 8.99658 35.407 8.87213 36.1122 8.77879C36.8071 8.67508 37.3982 8.55063 37.4293 8.51952C37.4604 8.47803 38.0308 8.36395 38.7049 8.26025C39.3687 8.15654 39.9183 8.03209 39.9183 7.98023C39.9183 7.90764 40.2191 7.85578 40.9347 7.80393C41.0695 7.79356 41.1628 7.84541 41.1628 7.92838ZM41.2873 14.8354C41.8058 15.0739 42.1999 16.0799 42.1999 17.1377C42.1999 17.7807 42.0132 18.9837 41.8991 19.1393C41.8473 19.1911 41.7851 19.3778 41.7436 19.5334C41.6191 20.0519 41.028 20.529 40.3539 20.6638C40.0324 20.726 39.742 20.809 39.7109 20.8505C39.6798 20.8816 39.2857 20.9957 38.8397 21.0994C38.3834 21.1927 37.9582 21.3171 37.9064 21.3586C37.8441 21.4105 37.5849 21.4831 37.3256 21.5246C37.0663 21.566 36.7241 21.6594 36.5478 21.732C36.3819 21.8046 35.8841 21.9498 35.4588 22.0535C35.0336 22.1468 34.6603 22.2609 34.6292 22.3024C34.5981 22.3439 34.1418 22.4579 33.6232 22.5617C33.0943 22.6654 32.6587 22.7898 32.6587 22.8209C32.6587 22.8624 32.2543 22.9765 31.7565 23.0802C31.2483 23.1839 30.8231 23.298 30.792 23.3395C30.7609 23.3809 30.3668 23.495 29.9104 23.5884C29.4645 23.6817 29.06 23.7958 29.0289 23.8373C28.9978 23.8787 28.6763 23.9825 28.303 24.0551C27.9296 24.1276 27.6081 24.221 27.577 24.2728C27.5459 24.3143 27.1207 24.4388 26.6229 24.5321C26.1147 24.6358 25.7102 24.7603 25.7102 24.8018C25.7102 24.8536 25.6377 24.8951 25.5547 24.8951C25.368 24.8951 25.3888 25.1129 25.3058 22.1676L25.2436 19.8134L25.6065 19.7097C25.8036 19.6474 26.0525 19.606 26.1562 19.606C26.2495 19.606 26.3325 19.5645 26.3325 19.523C26.3325 19.4711 26.6851 19.3467 27.1103 19.243C27.5355 19.1289 27.8881 19.0148 27.8881 18.9837C27.8881 18.9526 28.2407 18.8385 28.6659 18.7244C29.0911 18.6207 29.4438 18.5066 29.4438 18.4652C29.4438 18.4237 29.7341 18.3303 30.0971 18.2577C30.4497 18.1852 30.9268 18.04 31.1549 17.9363C31.3831 17.8429 31.7461 17.7288 31.9639 17.6874C32.1713 17.6459 32.3476 17.5836 32.3476 17.5422C32.3476 17.5007 32.7002 17.3866 33.1254 17.2725C33.5506 17.1688 33.9032 17.0547 33.9032 17.0132C33.9032 16.9821 34.2558 16.8681 34.681 16.754C35.1062 16.6503 35.4588 16.5362 35.4588 16.4947C35.4588 16.4636 35.8529 16.3391 36.3404 16.2354C36.8278 16.1214 37.2219 15.9969 37.2219 15.9658C37.2219 15.9243 37.5641 15.8102 37.979 15.7169C38.3834 15.6132 38.7464 15.4991 38.7775 15.4576C38.8086 15.4265 39.0679 15.3228 39.3479 15.2502C39.6383 15.1776 39.8872 15.0739 39.9183 15.0428C39.9702 14.9702 40.665 14.7628 40.9243 14.742C40.9969 14.7317 41.1524 14.7835 41.2873 14.8354ZM6.17156 16.2251C6.70048 16.3184 7.25013 16.391 7.39532 16.391C7.54051 16.391 7.66496 16.4325 7.66496 16.4843C7.66496 16.5362 8.21462 16.6606 8.88872 16.7643C9.55246 16.8681 10.1229 16.9821 10.154 17.0236C10.1851 17.0547 10.7555 17.1688 11.4296 17.2725C12.0933 17.3762 12.643 17.4903 12.643 17.5318C12.643 17.5733 13.0889 17.6666 13.6282 17.7496C14.1675 17.8222 14.6134 17.9155 14.6134 17.9466C14.6134 17.9881 15.1735 18.1022 15.8579 18.2059C16.5424 18.2992 17.1024 18.4237 17.1024 18.4652C17.1024 18.5066 17.6728 18.6207 18.3781 18.7244C19.0729 18.8281 19.664 18.9422 19.6952 18.9837C19.7263 19.0252 20.2863 19.1393 20.9397 19.243C21.593 19.3363 22.1842 19.4608 22.236 19.5022C22.2982 19.5437 22.7442 19.6371 23.2316 19.7097L24.1235 19.8341L24.1857 21.2342C24.3102 23.7128 24.2791 24.8951 24.1028 24.8951C24.0198 24.8951 23.9472 24.8536 23.9472 24.8121C23.9472 24.7603 23.4805 24.6358 22.9101 24.5321C22.3397 24.4284 21.873 24.3143 21.873 24.2728C21.873 24.2314 21.5101 24.138 21.0745 24.0654C20.6285 24.0032 20.2241 23.9099 20.1618 23.858C20.11 23.8165 19.6122 23.7024 19.0729 23.5987C18.5336 23.495 18.0669 23.3809 18.0358 23.3395C18.0047 23.298 17.538 23.1839 16.9987 23.0802C16.4594 22.9765 15.9928 22.8624 15.9616 22.8209C15.9305 22.7794 15.4638 22.6654 14.9246 22.5617C14.3853 22.4579 13.9186 22.3439 13.8875 22.3024C13.8564 22.2609 13.3897 22.1468 12.8504 22.0431C12.3111 21.9394 11.8444 21.8253 11.8133 21.7838C11.7822 21.7424 11.4607 21.6594 11.0873 21.5868C10.714 21.5246 10.3199 21.4209 10.2058 21.369C10.0917 21.3275 9.55246 21.2031 9.01318 21.0994C8.47389 21.006 8.0072 20.8919 7.97609 20.8505C7.94498 20.809 7.48866 20.6949 6.97012 20.5912C6.4412 20.4979 6.00563 20.3734 6.00563 20.3215C6.00563 20.2697 5.90192 20.2282 5.77747 20.2282C5.32115 20.2282 5.30041 20.1452 5.30041 18.5792C5.30041 17.7392 5.25893 17.0651 5.20707 17.0236C5.14485 16.9925 5.07225 16.7851 5.03077 16.5673C4.98928 16.3495 4.92706 16.1006 4.89595 16.0073C4.84409 15.8828 4.87521 15.8725 5.03077 15.9554C5.13448 16.0176 5.65302 16.1421 6.17156 16.2251ZM4.24258 23.0076C4.24258 23.0595 4.50185 23.1632 4.81298 23.2358C5.12411 23.3084 5.38338 23.4017 5.38338 23.4432C5.38338 23.4847 5.65302 23.5676 5.98489 23.6402C6.30638 23.7128 6.71085 23.8373 6.86641 23.9099C7.02197 23.9928 7.48866 24.138 7.90349 24.2314C8.31833 24.3351 8.67094 24.4388 8.70205 24.4803C8.73316 24.5217 9.08577 24.6358 9.47986 24.7395C9.88433 24.8432 10.2266 24.9677 10.2577 24.9988C10.2888 25.0403 10.6518 25.1544 11.0666 25.2581C11.4711 25.3618 11.8133 25.4862 11.8133 25.5277C11.8133 25.5692 11.9896 25.6314 12.2074 25.6729C12.4148 25.7144 12.7778 25.8285 13.006 25.9322C13.2341 26.0359 13.7112 26.1811 14.0742 26.2433C14.4268 26.3159 14.7171 26.4092 14.7171 26.4403C14.7171 26.4818 15.0594 26.6063 15.4742 26.71C15.8787 26.8137 16.2417 26.9278 16.2728 26.9693C16.3039 27.0004 16.6565 27.1248 17.0506 27.2285C17.455 27.3322 17.7973 27.4463 17.8284 27.4878C17.8595 27.5293 18.2018 27.633 18.5958 27.7367C18.9796 27.83 19.3633 27.9752 19.4463 28.0582C19.6226 28.2345 19.664 31.4287 19.4877 31.4287C19.4255 31.4287 19.384 31.771 19.384 32.248V33.0673L19.0003 32.974C18.7825 32.9118 18.5336 32.8392 18.4507 32.8081C18.2951 32.7458 17.061 32.4036 15.7542 32.0717C15.3809 31.9784 15.0594 31.8747 15.0283 31.8436C14.9972 31.8021 14.5927 31.6984 14.1156 31.5947C13.6386 31.491 13.12 31.3458 12.9748 31.2628C12.8193 31.1798 12.6015 31.1176 12.4874 31.1176C12.2281 31.1072 11.3881 30.8894 11.2222 30.7754C11.1599 30.7339 10.7451 30.6302 10.2888 30.5368C9.84284 30.4435 9.45912 30.3398 9.42801 30.2983C9.3969 30.2568 8.98206 30.1427 8.49463 30.039C8.0072 29.9353 7.57163 29.8212 7.5094 29.7694C7.45755 29.7279 7.12568 29.6346 6.78344 29.562C6.4412 29.4894 6.14045 29.396 6.10934 29.3649C6.05748 29.282 5.14485 29.0642 4.48111 28.9708C4.29444 28.9397 4.13887 28.8879 4.13887 28.8464C4.13887 28.8049 3.97294 28.7116 3.77589 28.639C3.57885 28.5664 3.41291 28.4419 3.41291 28.359C3.41291 28.276 3.34032 28.1827 3.25735 28.1515C3.08105 28.0789 2.79066 27.1974 2.79066 26.7411C2.79066 26.5855 2.74918 26.4507 2.68696 26.4507C2.62473 26.4507 2.58325 26.0359 2.58325 25.4136C2.58325 24.7914 2.62473 24.3765 2.68696 24.3765C2.74918 24.3765 2.79066 24.2936 2.79066 24.1795C2.79066 23.8476 3.09142 23.2358 3.25735 23.2358C3.35069 23.2358 3.44403 23.1632 3.47514 23.0802C3.53737 22.9143 4.24258 22.852 4.24258 23.0076ZM39.8146 24.2625C39.8146 24.3247 39.742 24.6773 39.6487 25.0714C39.5242 25.5899 39.4931 26.1292 39.5242 27.0937L39.5657 28.4108L38.6012 28.5871C38.0723 28.6908 37.6367 28.8049 37.6367 28.836C37.6367 28.8775 37.17 28.9916 36.5996 29.0953C36.0292 29.199 35.5626 29.3131 35.5626 29.3546C35.5626 29.396 35.1996 29.4894 34.764 29.562C34.3181 29.6346 33.9136 29.7279 33.8514 29.7798C33.7995 29.8212 33.3328 29.9353 32.8143 30.039C32.3061 30.1324 31.8602 30.2465 31.8291 30.2879C31.7979 30.319 31.3001 30.4435 30.7194 30.5472C30.1282 30.6509 29.6512 30.765 29.6512 30.8065C29.6512 30.8376 29.1949 30.962 28.6452 31.0657C28.0852 31.1695 27.6081 31.2835 27.577 31.325C27.5459 31.3665 27.0896 31.4806 26.5503 31.5739C26.0214 31.6776 25.5028 31.8021 25.4095 31.8436C25.3162 31.8954 24.9221 32.0095 24.5176 32.0925C23.6464 32.2791 21.9456 32.7043 21.1471 32.9221C20.8359 33.0155 20.5663 33.0881 20.5559 33.0881C20.5352 33.0881 20.5248 32.1962 20.5248 31.1176C20.5248 29.8731 20.5663 29.1471 20.6285 29.1471C20.6908 29.1471 20.7322 28.9086 20.7322 28.6286C20.7322 28.2345 20.7737 28.1101 20.8878 28.1101C20.9708 28.1101 21.0434 28.0789 21.0434 28.0271C21.0434 27.9856 21.6034 27.8612 22.2775 27.7574C22.962 27.6537 23.5324 27.5293 23.5531 27.4671C23.5739 27.4048 24.0198 27.353 24.5695 27.3322C25.5547 27.3115 26.7473 27.1041 26.7473 26.9693C26.7473 26.8656 27.4629 26.6892 28.2304 26.6063C28.5519 26.5648 28.8215 26.4922 28.8215 26.4507C28.8215 26.3989 29.3815 26.2848 30.066 26.1811C30.7505 26.0774 31.3105 25.9633 31.3105 25.9218C31.3105 25.8907 31.7565 25.7974 32.2957 25.7144C32.835 25.6418 33.281 25.5485 33.281 25.5173C33.281 25.4759 33.4573 25.4136 33.6751 25.3825C33.8825 25.3514 34.4321 25.2684 34.8885 25.2062C35.3448 25.1336 35.7389 25.0507 35.77 25.0092C35.8011 24.9677 36.3819 24.8432 37.0663 24.7395C37.7508 24.6358 38.3316 24.5217 38.3627 24.4803C38.3938 24.4388 38.6946 24.3558 39.0368 24.304C39.379 24.2417 39.6902 24.1899 39.742 24.1795C39.7835 24.1795 39.8146 24.2106 39.8146 24.2625Z" fill="black"/>
<path d="M19.9924 28.8985C20.6207 28.8985 21.1301 28.3892 21.1301 27.7609C21.1301 27.1325 20.6207 26.6232 19.9924 26.6232C19.3641 26.6232 18.8548 27.1325 18.8548 27.7609C18.8548 28.3892 19.3641 28.8985 19.9924 28.8985ZM24.7906 26.766C25.4189 26.766 25.9282 26.2567 25.9282 25.6283C25.9282 25 25.4189 24.4907 24.7906 24.4907C24.1623 24.4907 23.6529 25 23.6529 25.6283C23.6529 26.2567 24.1623 26.766 24.7906 26.766ZM24.6383 20.7493C25.2666 20.7493 25.7759 20.2399 25.7759 19.6116C25.7759 18.9833 25.2666 18.474 24.6383 18.474C24.0099 18.474 23.5006 18.9833 23.5006 19.6116C23.5006 20.2399 24.0099 20.7493 24.6383 20.7493ZM43.6023 7.26879C44.2306 7.26879 44.74 6.75945 44.74 6.13114C44.74 5.50284 44.2306 4.9935 43.6023 4.9935C42.974 4.9935 42.4647 5.50284 42.4647 6.13114C42.4647 6.75945 42.974 7.26879 43.6023 7.26879ZM4.68409 6.96415C5.31239 6.96415 5.82174 6.45481 5.82174 5.8265C5.82174 5.19819 5.31239 4.68885 4.68409 4.68885C4.05578 4.68885 3.54644 5.19819 3.54644 5.8265C3.54644 6.45481 4.05578 6.96415 4.68409 6.96415ZM28.9033 2.7753C29.5316 2.7753 30.0409 2.26596 30.0409 1.63765C30.0409 1.00934 29.5316 0.5 28.9033 0.5C28.275 0.5 27.7656 1.00934 27.7656 1.63765C27.7656 2.26595 28.275 2.7753 28.9033 2.7753ZM43.6023 14.1994C44.2306 14.1994 44.74 13.6901 44.74 13.0618C44.74 12.4335 44.2306 11.9241 43.6023 11.9241C42.974 11.9241 42.4647 12.4335 42.4647 13.0618C42.4647 13.6901 42.974 14.1994 43.6023 14.1994ZM42.2314 23.7196C42.8597 23.7196 43.3691 23.2102 43.3691 22.5819C43.3691 21.9536 42.8597 21.4443 42.2314 21.4443C41.6031 21.4443 41.0938 21.9536 41.0938 22.5819C41.0938 23.2102 41.6031 23.7196 42.2314 23.7196ZM1.63765 22.4248C2.26596 22.4248 2.7753 21.9155 2.7753 21.2872C2.7753 20.6589 2.26596 20.1495 1.63765 20.1495C1.00934 20.1495 0.5 20.6589 0.5 21.2872C0.5 21.9155 1.00934 22.4248 1.63765 22.4248ZM19.307 36.1338C19.9353 36.1338 20.4446 35.6245 20.4446 34.9961C20.4446 34.3678 19.9353 33.8585 19.307 33.8585C18.6787 33.8585 18.1693 34.3678 18.1693 34.9961C18.1693 35.6245 18.6787 36.1338 19.307 36.1338ZM42.8407 30.4217C43.469 30.4217 43.9784 29.9124 43.9784 29.2841C43.9784 28.6558 43.469 28.1464 42.8407 28.1464C42.2124 28.1464 41.7031 28.6558 41.7031 29.2841C41.7031 29.9124 42.2124 30.4217 42.8407 30.4217ZM2.47542 30.1171C3.10372 30.1171 3.61307 29.6077 3.61307 28.9794C3.61307 28.3511 3.10373 27.8418 2.47542 27.8418C1.84711 27.8418 1.33777 28.3511 1.33777 28.9794C1.33777 29.6077 1.84711 30.1171 2.47542 30.1171ZM1.78997 15.4942C2.41828 15.4942 2.92762 14.9848 2.92762 14.3565C2.92762 13.7282 2.41828 13.2189 1.78997 13.2189C1.16166 13.2189 0.652322 13.7282 0.652322 14.3565C0.652322 14.9848 1.16166 15.4942 1.78997 15.4942ZM21.3633 12.3716C21.9916 12.3716 22.501 11.8622 22.501 11.2339C22.501 10.6056 21.9916 10.0963 21.3633 10.0963C20.735 10.0963 20.2257 10.6056 20.2257 11.2339C20.2257 11.8622 20.735 12.3716 21.3633 12.3716Z" fill="white" stroke="black"/>
</svg>
