<svg width="20" height="20" viewBox="0 0 20 20" fill="none" xmlns="http://www.w3.org/2000/svg">
<path fill-rule="evenodd" clip-rule="evenodd" d="M19.9263 7.60987C19.519 5.87715 17.7109 5.78767 16.2574 5.71503C15.3428 5.66872 14.3967 5.6224 14.0009 5.2129C13.5978 4.79604 13.2832 3.99705 12.9769 3.22438C12.3801 1.71272 11.7034 0 9.99946 0C8.29657 0 7.62091 1.71272 7.02311 3.22438C6.7179 3.99705 6.40215 4.79604 6.00011 5.2129C5.60333 5.6224 4.65716 5.66872 3.74257 5.71503C2.28911 5.78767 0.480971 5.87715 0.0736664 7.60987C-0.312589 9.25418 0.894591 10.249 1.95969 11.1269C2.688 11.7269 3.37631 12.2954 3.52892 12.9902C3.67732 13.6649 3.45419 14.5366 3.23844 15.3808C2.86797 16.8325 2.44698 18.4768 3.85203 19.5368C4.2909 19.8684 4.7361 20 5.17603 20C6.12851 20 7.05679 19.3852 7.85137 18.8589C8.58705 18.3725 9.34798 17.8683 9.99946 17.8683C10.6509 17.8683 11.4129 18.3725 12.1475 18.8589C13.3105 19.6284 14.7566 20.5842 16.149 19.5368C17.5541 18.4768 17.1331 16.8314 16.7616 15.3787C16.5458 14.5355 16.3237 13.6639 16.4711 12.9902C16.6237 12.2954 17.312 11.728 18.0403 11.1269C19.1054 10.249 20.3126 9.25418 19.9263 7.60987Z" fill="#E0E0E0"/>
</svg>
